<mxfile host="app.diagrams.net" agent="Mozilla/5.0 (Windows NT 10.0; Win64; x64) AppleWebKit/537.36 (KHTML, like Gecko) Chrome/131.0.0.0 Safari/537.36 Edg/131.0.0.0" version="26.0.2">
  <diagram name="Página-1" id="isfom30bamYsf9DReJ9T">
    <mxGraphModel dx="1042" dy="1734" grid="1" gridSize="10" guides="1" tooltips="1" connect="1" arrows="1" fold="1" page="1" pageScale="1" pageWidth="827" pageHeight="1169" math="0" shadow="0">
      <root>
        <mxCell id="0" />
        <mxCell id="1" parent="0" />
        <mxCell id="I7KGWg0xgB24yZa9CqtF-6" style="edgeStyle=orthogonalEdgeStyle;rounded=0;orthogonalLoop=1;jettySize=auto;html=1;exitX=0.5;exitY=1;exitDx=0;exitDy=0;entryX=0.5;entryY=0;entryDx=0;entryDy=0;" edge="1" parent="1" source="I7KGWg0xgB24yZa9CqtF-2" target="I7KGWg0xgB24yZa9CqtF-3">
          <mxGeometry relative="1" as="geometry" />
        </mxCell>
        <mxCell id="I7KGWg0xgB24yZa9CqtF-2" value="Início" style="rounded=1;whiteSpace=wrap;html=1;" vertex="1" parent="1">
          <mxGeometry x="340" y="-1140" width="120" height="60" as="geometry" />
        </mxCell>
        <mxCell id="I7KGWg0xgB24yZa9CqtF-9" style="edgeStyle=orthogonalEdgeStyle;rounded=0;orthogonalLoop=1;jettySize=auto;html=1;exitX=0.5;exitY=1;exitDx=0;exitDy=0;entryX=0.5;entryY=0;entryDx=0;entryDy=0;" edge="1" parent="1" source="I7KGWg0xgB24yZa9CqtF-3" target="I7KGWg0xgB24yZa9CqtF-7">
          <mxGeometry relative="1" as="geometry" />
        </mxCell>
        <mxCell id="I7KGWg0xgB24yZa9CqtF-3" value="Inicializa SPI #3" style="rounded=0;whiteSpace=wrap;html=1;" vertex="1" parent="1">
          <mxGeometry x="340" y="-1050" width="120" height="60" as="geometry" />
        </mxCell>
        <mxCell id="I7KGWg0xgB24yZa9CqtF-4" value="Inicializa Wi-fi" style="whiteSpace=wrap;html=1;rounded=0;" vertex="1" parent="1">
          <mxGeometry x="340" y="-850" width="120" height="60" as="geometry" />
        </mxCell>
        <mxCell id="I7KGWg0xgB24yZa9CqtF-10" style="edgeStyle=orthogonalEdgeStyle;rounded=0;orthogonalLoop=1;jettySize=auto;html=1;exitX=0.5;exitY=1;exitDx=0;exitDy=0;entryX=0.5;entryY=0;entryDx=0;entryDy=0;" edge="1" parent="1" source="I7KGWg0xgB24yZa9CqtF-7" target="I7KGWg0xgB24yZa9CqtF-4">
          <mxGeometry relative="1" as="geometry" />
        </mxCell>
        <mxCell id="I7KGWg0xgB24yZa9CqtF-7" value="Inicializa serial (debug)" style="whiteSpace=wrap;html=1;rounded=0;" vertex="1" parent="1">
          <mxGeometry x="340" y="-950" width="120" height="60" as="geometry" />
        </mxCell>
        <mxCell id="I7KGWg0xgB24yZa9CqtF-11" value="Inicializa SPI #4" style="rounded=0;whiteSpace=wrap;html=1;" vertex="1" parent="1">
          <mxGeometry x="500" y="-1050" width="120" height="60" as="geometry" />
        </mxCell>
        <mxCell id="I7KGWg0xgB24yZa9CqtF-13" value="Inicializa SPI #1" style="rounded=0;whiteSpace=wrap;html=1;" vertex="1" parent="1">
          <mxGeometry x="30" y="-1050" width="120" height="60" as="geometry" />
        </mxCell>
        <mxCell id="I7KGWg0xgB24yZa9CqtF-14" value="Inicializa SPI #5" style="rounded=0;whiteSpace=wrap;html=1;" vertex="1" parent="1">
          <mxGeometry x="650" y="-1050" width="120" height="60" as="geometry" />
        </mxCell>
        <mxCell id="I7KGWg0xgB24yZa9CqtF-19" value="" style="edgeStyle=orthogonalEdgeStyle;rounded=0;orthogonalLoop=1;jettySize=auto;html=1;entryX=0.5;entryY=0;entryDx=0;entryDy=0;" edge="1" parent="1" target="I7KGWg0xgB24yZa9CqtF-12">
          <mxGeometry relative="1" as="geometry">
            <mxPoint x="400" y="-1070" as="sourcePoint" />
            <mxPoint x="90" y="-1050" as="targetPoint" />
          </mxGeometry>
        </mxCell>
        <mxCell id="I7KGWg0xgB24yZa9CqtF-12" value="Inicializa SPI #2" style="rounded=0;whiteSpace=wrap;html=1;" vertex="1" parent="1">
          <mxGeometry x="180" y="-1050" width="120" height="60" as="geometry" />
        </mxCell>
      </root>
    </mxGraphModel>
  </diagram>
</mxfile>
